# xmcd
#
# Track frame offsets: 
#        150
#        15760
#        31572
#        46172
#        60650
#        75062
#        89037
#        104815
#        120087
#        134465
#        148685
#        163287
#        192227
#        205770
#        220137
#        235787
#
# Disc length: 3354 seconds
#
# Revision: 6
# Processed by: cddbd v1.5.2PL0 Copyright (c) Steve Scherf et al.
# Submitted via: ExactAudioCopy v0.99pb4
#
DISCID=cb0d1810
DTITLE=Bessie Smith - The Collection
DYEAR=1989
DGENRE=
TTITLE0=Downhearted Blues
TTITLE1='Tain't Nobody's Bizness If I Do
TTITLE2=My Sweetie Went Away (She Didn't Say Where, When or Why)
TTITLE3=Weepin' Willow Blues
TTITLE4=St. Louis Blues
TTITLE5=Reckless Blues
TTITLE6=You've Been a Good Ole Wagon
TTITLE7=I Ain't Gonna Play No Second Fiddle
TTITLE8=Young Woman's Blues
TTITLE9=Muddy Water (A Mississippi Moan)
TTITLE10=Mean Old Bedbug Blues
TTITLE11=Empty Bed Blues (Parts 1 and 2)
TTITLE12=Nobody Knows You When You're Down and Out
TTITLE13=Black Mountain Blues
TTITLE14=Do Your Duty
TTITLE15=Gimme a Pigfoot
EXTD=
EXTT0=
EXTT1=
EXTT2=
EXTT3=
EXTT4=
EXTT5=
EXTT6=
EXTT7=
EXTT8=
EXTT9=
EXTT10=
EXTT11=
EXTT12=
EXTT13=
EXTT14=
EXTT15=
PLAYORDER=
